<svg id="english_logo" data-name="english logo" xmlns="http://www.w3.org/2000/svg" xmlns:xlink="http://www.w3.org/1999/xlink" viewBox="0 0 1920 1080"><defs><style>.cls-1{fill:#1c487a;}.cls-2{fill:url(#linear-gradient);}.cls-3{fill:#d4a32f;}.cls-4{fill:#dadada;}</style><linearGradient id="linear-gradient" x1="799.1" y1="387.25" x2="880.68" y2="387.25" gradientUnits="userSpaceOnUse"><stop offset="0" stop-color="#d8b568"/><stop offset="1" stop-color="#fff"/></linearGradient></defs><path class="cls-1" d="M671.49,202.79c71,0,141.77-.95,212.48.77,15,.36,31.6,7.78,44.27,16.55,52.31,36.21,43.27,125.06-14.84,155.37-2.4,1.25-4.86,2.39-8.61,4.23L980,470.2c-33.19,0-64.4.1-95.6-.34-1.29,0-3.61-5.12-3.62-7.86-.21-62.88-.06-125.76-.53-188.63,0-2.88-5.2-8.16-8-8.2q-58-.81-116,0c-2.71,0-7.67,5-7.69,7.66-.43,62.62-.2,125.25-.73,187.88,0,3.13-5.77,8.77-9,8.9-20.39.8-40.84.55-61.25.07-2.41-.05-6.8-3.65-6.81-5.61q-.37-129.48,0-258.95A10.57,10.57,0,0,1,671.49,202.79Z"/><path class="cls-1" d="M950,390.38,1090.82,264.9c-33.11,0-63.19-.39-93.25.24-8.88.18-11-3.1-14.7-10.86-8.93-18.54-20.93-35.61-30.79-51.79-2.7.14.08-.13,2.86-.13,74.07,0,148.15-.14,222.23.34,3,0,6.92,5.1,8.55,8.68,1.44,3.15-.4,7.63.37,11.27,7.65,36.39-10.21,59.53-37,81.52-37.13,30.42-71.34,64.4-109.36,99.19H1052c41.94,0,83.88-.24,125.82.25,2.86,0,8,5.25,8.09,8.24.8,16.85.71,33.77.08,50.63-.09,2.54-4.59,7-7.07,7-52.56.38-105.12.26-157.68.12-2.26,0-5.38-.45-6.64-1.93C993,442.22,971.73,416.53,950,390.38Z"/><polygon class="cls-2" points="880.51 326.75 799.1 345.1 799.1 447.75 880.68 424.38 880.51 326.75"/><path class="cls-1" d="M435.17,569.08h80.88a68.49,68.49,0,0,1,20,2.71,44.8,44.8,0,0,1,15.23,7.79,33.75,33.75,0,0,1,9.63,12.34,39,39,0,0,1,3.32,16.37q0,13.66-7.17,23.2t-19.79,12.87L564,681.12H527.08l-24.34-33.61H485.41q-9.45,0-15,3.06c-3.67,2-5.51,5.28-5.51,9.72v20.83H435.17Zm31.51,55a27.42,27.42,0,0,1,8.14-4.12,38.3,38.3,0,0,1,10.94-1.31h33.09q8.05,0,10.94-2.8a10,10,0,0,0,2.89-7.53q0-5.07-3.24-7.7T518.33,598h-53.4v26.09Z"/><path class="cls-1" d="M645.08,681.12H611.46l58.13-112h37.46l58.13,112H731.56l-9.8-18.73h-67Zm61.8-47.62L689.2,599.36h-1.75L669.76,633.5Z"/><path class="cls-1" d="M940.43,604.26a24.76,24.76,0,0,1-4.2,14.36q16.44,7.53,16.45,27.14,0,17.5-10.85,26.43t-32,8.93H814.2v-112H901q20.3,0,29.85,8.57T940.43,604.26Zm-31.52,0q0-6.3-8-6.3H844v18h1.75a26.77,26.77,0,0,1,8.49-4.12,41.81,41.81,0,0,1,11.3-1.31h35.19q4.54,0,6.39-1.4C908.3,608.23,908.91,606.6,908.91,604.26Zm12.26,41.5q0-6.3-10.15-6.31H864.45q-10,0-15.24,3.24a10.38,10.38,0,0,0-5.25,9.37v.18h67.23q5.25,0,7.62-1.49C920.38,649.76,921.17,648.09,921.17,645.76Z"/><path class="cls-1" d="M1055.45,652.24h69v28.88h-121V654L1071,599.71V598h-66V569.08h118v27.13l-67.58,54.27Z"/><path class="cls-1" d="M1208.81,681.12H1175.2l58.12-112h37.47l58.12,112H1295.3l-9.81-18.73h-67Zm61.8-47.62-17.68-34.14h-1.75L1233.5,633.5Z"/><path class="cls-1" d="M1479.3,638.93h1.75V569.08h29.76v112H1479.3l-69.85-69.85h-1.75v69.85h-29.77v-112h31.52Z"/><path class="cls-3" d="M453.24,738.9H431.67V726.19H487.9V738.9H466.34v36.59h-13.1Z"/><path class="cls-3" d="M506,726.19H541.6a30,30,0,0,1,8.78,1.19,19.72,19.72,0,0,1,6.7,3.43,14.86,14.86,0,0,1,4.24,5.43,17.18,17.18,0,0,1,1.46,7.2,16.47,16.47,0,0,1-3.16,10.21,15.36,15.36,0,0,1-8.7,5.66l11.78,16.18H546.45L535.74,760.7h-7.62a13.72,13.72,0,0,0-6.59,1.34,4.55,4.55,0,0,0-2.43,4.28v9.17H506Zm13.86,24.19a12,12,0,0,1,3.59-1.82,16.93,16.93,0,0,1,4.81-.57h14.56c2.36,0,4-.41,4.81-1.24a4.38,4.38,0,0,0,1.28-3.31,4.11,4.11,0,0,0-1.43-3.39q-1.43-1.15-4.89-1.15H519.1v11.48Z"/><path class="cls-3" d="M594.13,775.49H579.34l25.58-49.3H621.4L647,775.49H632.19l-4.32-8.24h-29.5Zm27.19-21-7.78-15h-.77l-7.78,15Z"/><path class="cls-3" d="M664.31,726.19H698a32.6,32.6,0,0,1,11,1.73,23.68,23.68,0,0,1,8.36,5,22,22,0,0,1,5.35,7.78,26.25,26.25,0,0,1,1.89,10.17q0,11.94-6.86,18.29T698,775.49H664.31Zm33.43,36.59q6.78,0,9.86-2.85t3.08-9.09q0-6.24-3.08-9.09t-10.09-2.85H677.4v23.88Z"/><path class="cls-3" d="M743.42,726.19h13.1v49.3h-13.1Z"/><path class="cls-3" d="M820.76,756.92h.77V726.19h13.1v49.3H820.76L790,744.75h-.77v30.74H776.16v-49.3H790Z"/><path class="cls-3" d="M904.19,773.25a27.93,27.93,0,0,1-13.49,3h-10a32.28,32.28,0,0,1-10.9-1.77,25.11,25.11,0,0,1-8.59-5.09,23.35,23.35,0,0,1-5.66-8,26.23,26.23,0,0,1-2-10.55,28.1,28.1,0,0,1,1.89-10.56,22.18,22.18,0,0,1,5.39-8,23.68,23.68,0,0,1,8.47-5.08,33.25,33.25,0,0,1,11.21-1.77h10a36.06,36.06,0,0,1,10.9,1.54,25,25,0,0,1,8.44,4.43,21.4,21.4,0,0,1,5.66,7.12,26.37,26.37,0,0,1,2.58,9.55H904.19a10.33,10.33,0,0,0-4.24-7.12c-2.31-1.62-5.45-2.43-9.4-2.43h-9.78c-4.27,0-7.56,1.08-9.9,3.24s-3.51,5.18-3.51,9.09,1.17,6.93,3.51,9.09,5.63,3.23,9.9,3.23h13.79q4.16,0,5.74-1.23t1.57-4.47v-3.85h16.18v21.88H905v-2.24Z"/><path class="cls-3" d="M997.39,776.26a33.19,33.19,0,0,1-11.2-1.77,23.89,23.89,0,0,1-8.48-5.09,22.3,22.3,0,0,1-5.39-8,30.42,30.42,0,0,1,0-21.11,22.3,22.3,0,0,1,5.39-8,23.73,23.73,0,0,1,8.48-5.08,33.19,33.19,0,0,1,11.2-1.77h10a36.11,36.11,0,0,1,10.9,1.54,24.9,24.9,0,0,1,8.43,4.43,21.55,21.55,0,0,1,5.67,7.12,26.37,26.37,0,0,1,2.58,9.55h-13.87a10.29,10.29,0,0,0-4.24-7.12q-3.46-2.43-9.39-2.43H997.7q-6.39,0-9.9,3.24t-3.5,9.09q0,5.85,3.5,9.09t9.9,3.23h9.79q5.93,0,9.39-2.46a10.4,10.4,0,0,0,4.24-7.09H1035a26.31,26.31,0,0,1-2.58,9.55,21.59,21.59,0,0,1-5.67,7.13,25.26,25.26,0,0,1-8.43,4.43,36.43,36.43,0,0,1-10.9,1.54Z"/><path class="cls-3" d="M1053.09,751.15a29.23,29.23,0,0,1,1.85-10.75,22.06,22.06,0,0,1,5.35-8.09,23.48,23.48,0,0,1,8.51-5.12,33.62,33.62,0,0,1,11.25-1.77h10.78a33.62,33.62,0,0,1,11.25,1.77,23.48,23.48,0,0,1,8.51,5.12,22.21,22.21,0,0,1,5.36,8.09,29.45,29.45,0,0,1,1.84,10.75,28.36,28.36,0,0,1-1.84,10.51,21.58,21.58,0,0,1-5.32,7.9,23.45,23.45,0,0,1-8.47,5,34.43,34.43,0,0,1-11.33,1.74h-10.78a34.32,34.32,0,0,1-11.32-1.74,23.5,23.5,0,0,1-8.48-5,21.44,21.44,0,0,1-5.31-7.9A28.16,28.16,0,0,1,1053.09,751.15Zm13.86-.08q0,5.85,3.43,9t10,3.12h10.17q6.54,0,10-3.12t3.43-9q0-6-3.51-9.28t-9.89-3.28h-10.17q-6.4,0-9.9,3.28T1067,751.07Z"/><path class="cls-3" d="M1169.33,760.77l18-34.58h13.87v49.3h-13.1v-21h-.77l-10.93,21h-15l-10.94-21h-.77v21h-13.09v-49.3h13.86l18,34.58Z"/><path class="cls-3" d="M1220.86,726.19h36.36a29.29,29.29,0,0,1,8.78,1.23,19.88,19.88,0,0,1,6.71,3.5,15.07,15.07,0,0,1,4.23,5.55,19.14,19.14,0,0,1,0,14.71,14.91,14.91,0,0,1-4.23,5.55,19.9,19.9,0,0,1-6.71,3.51,29.29,29.29,0,0,1-8.78,1.23H1243a12.64,12.64,0,0,0-6.7,1.46,4.65,4.65,0,0,0-2.31,4.16v8.4h-13.1Zm13.87,25a11.13,11.13,0,0,1,3.77-1.85,19.26,19.26,0,0,1,4.93-.54h14.33c4.52,0,6.78-1.65,6.78-4.93a4.36,4.36,0,0,0-1.66-3.58q-1.65-1.35-5.35-1.35H1234v12.25Z"/><path class="cls-3" d="M1299,775.49h-14.79l25.58-49.3h16.48l25.58,49.3H1337l-4.32-8.24h-29.5Zm27.2-21-7.78-15h-.77l-7.79,15Z"/><path class="cls-3" d="M1413.75,756.92h.77V726.19h13.1v49.3h-13.87L1383,744.75h-.77v30.74h-13.1v-49.3H1383Z"/><path class="cls-3" d="M1471.68,757.77l-26-31.58h17l15.25,18.48h.77l15.18-18.48h16.94l-26,31.73v17.57h-13.1Z"/><rect class="cls-4" x="435.16" y="698.43" width="1075.65" height="7.15"/></svg>